<?xml version="1.0" encoding="UTF-8"?>
<svg xmlns="http://www.w3.org/2000/svg" xmlns:xlink="http://www.w3.org/1999/xlink" width="60px" height="60px" viewBox="0 0 60 60" version="1.1">
<defs>
<linearGradient id="linear0" gradientUnits="userSpaceOnUse" x1="4.80029" y1="25.9596" x2="18.064" y2="25.9596" gradientTransform="matrix(1.666667,0,0,1.666667,0,0)">
<stop offset="0" style="stop-color:rgb(98.431373%,75.294118%,17.647059%);stop-opacity:1;"/>
<stop offset="1" style="stop-color:rgb(98.039216%,81.176471%,40%);stop-opacity:1;"/>
</linearGradient>
<linearGradient id="linear1" gradientUnits="userSpaceOnUse" x1="6.96143" y1="19.6966" x2="23.6435" y2="19.6966" gradientTransform="matrix(1.666667,0,0,1.666667,0,0)">
<stop offset="0" style="stop-color:rgb(98.431373%,75.294118%,17.647059%);stop-opacity:1;"/>
<stop offset="1" style="stop-color:rgb(98.039216%,81.176471%,40%);stop-opacity:1;"/>
</linearGradient>
<linearGradient id="linear2" gradientUnits="userSpaceOnUse" x1="2.24829" y1="30.7806" x2="10.1914" y2="30.7806" gradientTransform="matrix(1.666667,0,0,1.666667,0,0)">
<stop offset="0" style="stop-color:rgb(98.431373%,75.294118%,17.647059%);stop-opacity:1;"/>
<stop offset="1" style="stop-color:rgb(98.039216%,81.176471%,40%);stop-opacity:1;"/>
</linearGradient>
<linearGradient id="linear3" gradientUnits="userSpaceOnUse" x1="15.655" y1="7.87529" x2="22.5914" y2="7.87529" gradientTransform="matrix(1.666667,0,0,1.666667,0,0)">
<stop offset="0" style="stop-color:rgb(98.431373%,75.294118%,17.647059%);stop-opacity:1;"/>
<stop offset="1" style="stop-color:rgb(98.039216%,81.176471%,40%);stop-opacity:1;"/>
</linearGradient>
<linearGradient id="linear4" gradientUnits="userSpaceOnUse" x1="22.4104" y1="16.874" x2="33.8407" y2="16.874" gradientTransform="matrix(1.666667,0,0,1.666667,0,0)">
<stop offset="0" style="stop-color:rgb(98.431373%,75.294118%,17.647059%);stop-opacity:1;"/>
<stop offset="1" style="stop-color:rgb(98.039216%,81.176471%,40%);stop-opacity:1;"/>
</linearGradient>
<linearGradient id="linear5" gradientUnits="userSpaceOnUse" x1="26.4375" y1="22.7813" x2="29.25" y2="22.7812" gradientTransform="matrix(1.666667,0,0,1.666667,0,0)">
<stop offset="0" style="stop-color:rgb(98.431373%,75.294118%,17.647059%);stop-opacity:1;"/>
<stop offset="1" style="stop-color:rgb(98.039216%,81.176471%,40%);stop-opacity:1;"/>
</linearGradient>
<linearGradient id="linear6" gradientUnits="userSpaceOnUse" x1="28.4583" y1="3.84216" x2="31.3602" y2="3.84216" gradientTransform="matrix(1.666667,0,0,1.666667,0,0)">
<stop offset="0" style="stop-color:rgb(98.431373%,75.294118%,17.647059%);stop-opacity:1;"/>
<stop offset="1" style="stop-color:rgb(98.039216%,81.176471%,40%);stop-opacity:1;"/>
</linearGradient>
<linearGradient id="linear7" gradientUnits="userSpaceOnUse" x1="12.375" y1="5.90625" x2="14.0625" y2="5.90625" gradientTransform="matrix(1.666667,0,0,1.666667,0,0)">
<stop offset="0" style="stop-color:rgb(98.431373%,75.294118%,17.647059%);stop-opacity:1;"/>
<stop offset="1" style="stop-color:rgb(98.039216%,81.176471%,40%);stop-opacity:1;"/>
</linearGradient>
<linearGradient id="linear8" gradientUnits="userSpaceOnUse" x1="20.8069" y1="11.0031" x2="32.6249" y2="11.0031" gradientTransform="matrix(1.666667,0,0,1.666667,0,0)">
<stop offset="0" style="stop-color:rgb(98.431373%,75.294118%,17.647059%);stop-opacity:1;"/>
<stop offset="1" style="stop-color:rgb(98.039216%,81.176471%,40%);stop-opacity:1;"/>
</linearGradient>
</defs>
<g id="surface1">
<path style=" stroke:none;fill-rule:nonzero;fill:url(#linear0);" d="M 30.105469 47.074219 C 28.050781 47.832031 25.4375 48.789062 22.132812 50.015625 C 16.492188 49.226562 10.5625 47.390625 8 43.179688 C 8.933594 40.664062 9.746094 38.460938 10.46875 36.515625 C 15.296875 42.097656 23.738281 45.640625 30.105469 47.074219 Z M 30.105469 47.074219 "/>
<path style=" stroke:none;fill-rule:nonzero;fill:url(#linear1);" d="M 31.746094 28.253906 C 26.253906 22.765625 19.1875 18.710938 16.304688 21.597656 C 15.691406 22.214844 15.875 21.847656 11.601562 33.445312 C 16.160156 40.019531 27.671875 44.609375 35.691406 45.015625 C 38.089844 44.113281 38.03125 44.066406 38.402344 43.695312 C 41.9375 40.160156 35.277344 31.785156 31.746094 28.253906 Z M 36.410156 41.703125 C 36.140625 41.976562 34.894531 41.988281 32.679688 40.898438 C 30.273438 39.707031 27.527344 37.628906 24.945312 35.050781 C 18.96875 29.074219 17.574219 24.308594 18.292969 23.585938 C 18.40625 23.472656 18.613281 23.414062 18.914062 23.414062 C 20.527344 23.414062 24.710938 25.195312 29.757812 30.242188 C 32.339844 32.824219 34.414062 35.570312 35.605469 37.976562 C 36.699219 40.1875 36.679688 41.4375 36.410156 41.703125 Z M 36.410156 41.703125 "/>
<path style=" stroke:none;fill-rule:nonzero;fill:url(#linear2);" d="M 16.984375 51.925781 C 13.738281 53.132812 9.992188 54.53125 5.644531 56.160156 C 4.515625 56.578125 3.421875 55.476562 3.839844 54.351562 C 4.933594 51.421875 5.921875 48.769531 6.820312 46.351562 C 9.292969 49.191406 13.007812 50.910156 16.984375 51.925781 Z M 16.984375 51.925781 "/>
<path style=" stroke:none;fill-rule:nonzero;fill:url(#linear3);" d="M 36.878906 7.300781 C 36.003906 7.457031 35.160156 7.59375 34.585938 7.882812 C 35.445312 9.207031 37.25 10.894531 36.148438 13.09375 C 35.164062 15.0625 33.117188 14.945312 31.34375 15.007812 C 32.433594 16.496094 33.691406 18.007812 32.722656 19.953125 C 31.714844 21.96875 29.074219 22.386719 27.515625 22.636719 C 27.011719 22.722656 26.542969 22.382812 26.449219 21.882812 L 26.109375 20.042969 C 26.011719 19.53125 26.355469 19.035156 26.867188 18.945312 C 27.753906 18.789062 28.585938 18.65625 29.164062 18.363281 C 28.296875 17.050781 26.503906 15.347656 27.597656 13.15625 C 28.582031 11.191406 30.625 11.304688 32.402344 11.242188 C 31.3125 9.753906 30.054688 8.242188 31.027344 6.300781 C 32.03125 4.285156 34.675781 3.867188 36.230469 3.613281 C 36.734375 3.53125 37.203125 3.867188 37.292969 4.367188 L 37.636719 6.210938 C 37.734375 6.722656 37.394531 7.210938 36.878906 7.300781 Z M 36.878906 7.300781 "/>
<path style=" stroke:none;fill-rule:nonzero;fill:url(#linear4);" d="M 53.792969 22.359375 L 55.632812 22.699219 C 56.136719 22.792969 56.472656 23.261719 56.390625 23.765625 C 56.136719 25.320312 55.714844 27.960938 53.703125 28.96875 C 51.757812 29.941406 50.25 28.683594 48.757812 27.589844 C 48.699219 29.371094 48.808594 31.414062 46.84375 32.394531 C 44.652344 33.492188 42.949219 31.695312 41.636719 30.832031 C 41.34375 31.40625 41.210938 32.238281 41.054688 33.125 C 40.964844 33.640625 40.472656 33.980469 39.960938 33.886719 L 38.117188 33.546875 C 37.617188 33.453125 37.28125 32.984375 37.363281 32.480469 C 37.617188 30.921875 38.035156 28.28125 40.050781 27.273438 C 41.992188 26.300781 43.503906 27.5625 44.992188 28.652344 C 45.054688 26.875 44.9375 24.828125 46.90625 23.847656 C 49.109375 22.746094 50.792969 24.546875 52.117188 25.410156 C 52.40625 24.835938 52.546875 23.992188 52.699219 23.113281 C 52.785156 22.605469 53.277344 22.265625 53.792969 22.359375 Z M 53.792969 22.359375 "/>
<path style=" stroke:none;fill-rule:nonzero;fill:url(#linear5);" d="M 48.1875 39.375 L 44.625 39.375 C 44.3125 39.375 44.0625 39.125 44.0625 38.8125 L 44.0625 37.125 C 44.0625 36.8125 44.3125 36.5625 44.625 36.5625 L 48.1875 36.5625 C 48.5 36.5625 48.75 36.8125 48.75 37.125 L 48.75 38.8125 C 48.75 39.125 48.5 39.375 48.1875 39.375 Z M 48.1875 39.375 "/>
<path style=" stroke:none;fill-rule:nonzero;fill:url(#linear6);" d="M 52.101562 6.136719 L 49.582031 8.660156 C 49.363281 8.878906 49.007812 8.878906 48.789062 8.660156 L 47.59375 7.464844 C 47.375 7.246094 47.375 6.886719 47.59375 6.667969 L 50.113281 4.148438 C 50.335938 3.929688 50.691406 3.929688 50.910156 4.148438 L 52.101562 5.339844 C 52.320312 5.5625 52.320312 5.917969 52.101562 6.136719 Z M 52.101562 6.136719 "/>
<path style=" stroke:none;fill-rule:nonzero;fill:url(#linear7);" d="M 22.875 12.1875 L 21.1875 12.1875 C 20.875 12.1875 20.625 11.9375 20.625 11.625 L 20.625 8.0625 C 20.625 7.75 20.875 7.5 21.1875 7.5 L 22.875 7.5 C 23.1875 7.5 23.4375 7.75 23.4375 8.0625 L 23.4375 11.625 C 23.4375 11.9375 23.1875 12.1875 22.875 12.1875 Z M 22.875 12.1875 "/>
<path style=" stroke:none;fill-rule:nonzero;fill:url(#linear8);" d="M 36.34375 24.855469 L 34.9375 23.917969 C 34.671875 23.738281 34.59375 23.382812 34.777344 23.125 C 38.605469 17.679688 45.980469 12.003906 53.789062 11.730469 C 54.109375 11.71875 54.375 11.984375 54.375 12.304688 L 54.375 13.992188 C 54.375 14.292969 54.136719 14.527344 53.839844 14.542969 C 47.308594 14.800781 40.617188 19.71875 37.097656 24.710938 C 36.925781 24.960938 36.59375 25.023438 36.34375 24.855469 Z M 36.34375 24.855469 "/>
</g>
</svg>
